# xmcd
#
# Track frame offsets: 
#        150
#        20143
#        35236
#        54215
#        67209
#        82393
#        98587
#        117904
#        133682
#        148690
#
# Disc length: 2168 seconds
#
# Revision: 0
# Processed by: cddbd v1.5.2PL0 Copyright (c) Steve Scherf et al.
# Submitted via: ExactAudioCopyFreeDBPlugin 1.0
#
DISCID=9708760a
DTITLE=Justin Wells - Dawn in the Distance
DYEAR=2016
DGENRE=Alt-Country
TTITLE0=Going Down Grinnin'
TTITLE1=Still No Rain
TTITLE2=The Dogs
TTITLE3=So Far Away
TTITLE4=The Highway Less Taken
TTITLE5=Three Quarters Gone
TTITLE6=Another Night Lonely
TTITLE7=Can't Break My Heart
TTITLE8=Been a Long Time
TTITLE9=Little Darlins
EXTD=
EXTT0=
EXTT1=
EXTT2=
EXTT3=
EXTT4=
EXTT5=
EXTT6=
EXTT7=
EXTT8=
EXTT9=
PLAYORDER=
